<?xml version="1.0" encoding="UTF-8"?>
<svg version="1.1" xmlns="http://www.w3.org/2000/svg" width="1254" height="1254">
<path d="M0 0 C413.82 0 827.64 0 1254 0 C1254 413.82 1254 827.64 1254 1254 C840.18 1254 426.36 1254 0 1254 C0 840.18 0 426.36 0 0 Z " fill="#FDFDFD" transform="translate(0,0)"/>
<path d="M0 0 C3.8830588 0.01136286 7.76606547 -0.00091284 11.64912093 -0.00984204 C19.20267503 -0.02359898 26.75605924 -0.01635546 34.30960489 -0.00116646 C43.12319288 0.01587045 51.93674064 0.01246238 60.75034004 0.00873946 C76.46764144 0.00289542 92.18486204 0.0169072 107.90214217 0.04168689 C123.13524571 0.06570021 138.36824182 0.07264709 153.60136092 0.06219471 C170.25101318 0.05079062 186.9006161 0.04884121 203.55026776 0.0632928 C205.32345255 0.06481851 207.09663734 0.06633887 208.86982214 0.06785381 C210.17811912 0.06899053 210.17811912 0.06899053 211.51284634 0.07015022 C217.65287873 0.07488897 223.792889 0.07304526 229.93292105 0.06878841 C237.39804406 0.06386805 244.86306557 0.06982094 252.3281653 0.08968271 C256.1345179 0.09956123 259.94071575 0.10465315 263.74707663 0.09679019 C267.86894507 0.08844901 271.99039984 0.1032948 276.11224043 0.12055957 C277.92151749 0.11154451 277.92151749 0.11154451 279.76734561 0.10234731 C281.42133181 0.11500723 281.42133181 0.11500723 283.10873187 0.12792289 C284.05961737 0.12895202 285.01050287 0.12998115 285.99020308 0.13104147 C289.17837088 0.58796101 291.0678285 1.56371475 293.62211287 3.50823963 C294.40384662 7.7643456 293.60322115 10.87339557 291.98930037 14.76995838 C291.62812117 15.6503075 291.26694197 16.53065662 290.89481795 17.43768299 C290.26482893 18.95760852 290.26482893 18.95760852 289.62211287 20.50823963 C288.6017933 23.00271283 287.58226022 25.4974973 286.56351912 27.99261463 C286.00695796 29.35462627 285.45031599 30.71660489 284.89359725 32.07855213 C284.61217879 32.76723377 284.33076033 33.45591541 284.04081404 34.16546619 C283.47277964 35.55388674 282.9037785 36.94191218 282.33378279 38.32952869 C278.91195298 46.66351512 275.65556228 55.00523628 272.7292906 63.52874744 C271.3801218 67.1594544 269.65843458 70.49022156 267.85648787 73.91058338 C266.43509404 76.90180773 265.41606598 79.92815477 264.37211287 83.07073963 C258.86683384 98.84680485 250.52099364 114.80211104 235.62211287 123.50823963 C227.18741829 127.51335912 220.38508525 129.65740927 211.06393111 129.65299976 C210.19157216 129.6565266 209.31921322 129.66005345 208.42041916 129.66368717 C205.49179544 129.67437766 202.56320424 129.67805577 199.63456404 129.68182361 C197.53698269 129.68812862 195.43940267 129.69489436 193.34182417 129.70208728 C188.82162628 129.71676089 184.30143357 129.72848416 179.78122199 129.73803508 C172.63370392 129.75347965 165.48623023 129.77742871 158.3387419 129.80293262 C138.01289862 129.87415633 117.68702998 129.93392332 97.36112654 129.98504627 C86.13775531 130.01335012 74.91442828 130.04873126 63.6911034 130.09170002 C56.58626109 130.11847254 49.48146879 130.13637773 42.37658596 130.14773726 C37.95455921 130.15686562 33.53259318 130.17422865 29.11060202 130.1939162 C27.06076318 130.20138715 25.01090876 130.20547249 22.96105635 130.20591152 C20.16099909 130.20699542 17.36125006 130.22025579 14.56124556 130.23649585 C13.34692871 130.23257057 13.34692871 130.23257057 12.10808021 130.22856599 C-1.06115132 130.3477248 -13.75125818 136.27188593 -23.20991838 145.24652088 C-32.1797826 154.68539761 -35.84705179 167.13561177 -40.04341447 179.17205799 C-42.25604848 185.50968106 -44.67206866 191.70703001 -47.29121721 197.88763416 C-48.49218761 200.78388585 -49.51146074 203.70157224 -50.44038713 206.69573963 C-51.82129391 210.96601362 -53.41311041 215.00111753 -55.30781877 219.06561267 C-56.49253814 221.76995155 -57.50532694 224.5069626 -58.50288713 227.28558338 C-58.85609025 228.26647937 -59.20929338 229.24737537 -59.57319963 230.25799549 C-59.8387465 231.00057605 -60.10429338 231.74315662 -60.37788713 232.50823963 C-59.12829556 232.50547425 -57.87870399 232.50270887 -56.59124601 232.49985969 C-26.94777294 232.43492681 2.69568184 232.38543848 32.33920856 232.35504364 C35.98551208 232.35129139 39.63181544 232.34740843 43.27811873 232.34344471 C44.36701742 232.34226431 44.36701742 232.34226431 45.47791406 232.34106006 C57.24175554 232.32799582 69.00555318 232.3043364 80.76936863 232.27678124 C92.83452278 232.24875533 104.89965391 232.23206934 116.96483928 232.22597414 C124.41346541 232.22185184 131.86196761 232.20881847 139.3105556 232.18449023 C145.01613608 232.16680092 150.72163663 232.16486687 156.42723906 232.16891658 C158.7722576 232.16808826 161.11728064 232.16208146 163.46227133 232.1506232 C166.65373315 232.13578805 169.84465638 232.13925324 173.03612959 232.14747608 C173.97289151 232.13873755 174.90965342 232.12999903 175.87480205 232.1209957 C176.72724032 232.12696885 177.57967859 232.13294199 178.45794833 232.13909614 C179.19498549 232.13795698 179.93202265 232.13681782 180.69139427 232.13564414 C183.22251875 232.62410764 184.09873837 233.45232065 185.62211287 235.50823963 C186.31956915 241.83899666 184.98925605 245.93192258 182.12211287 251.50823963 C181.75827498 252.24751697 181.39443709 252.98679431 181.01957381 253.748474 C179.90241574 256.00977929 178.76450394 258.2595964 177.62211287 260.50823963 C176.99088869 261.76814786 176.36062737 263.02853911 175.73148787 264.28948963 C174.78923553 266.17573922 173.84545739 268.06113034 172.89652693 269.94403064 C169.81294112 276.0751928 166.83761229 282.2567471 163.87211287 288.44573963 C163.36631697 289.50099842 162.86052107 290.55625721 162.33939803 291.64349353 C159.68459905 297.18760847 157.03746661 302.73531901 154.39555037 308.28558338 C153.86800154 309.39103504 153.34045271 310.4964867 152.79691756 311.63543689 C151.79755174 313.72972855 150.80062152 315.82518503 149.80668318 317.92205799 C141.52112735 335.27157124 133.72127512 349.26741472 115.59086287 357.46527088 C108.06181788 360.11034326 101.12614689 360.76027323 93.18388045 360.50970447 C91.10681108 360.46397724 89.02972798 360.41887005 86.9526335 360.37429798 C85.31925756 360.33434774 85.31925756 360.33434774 83.65288413 360.29359043 C77.83271171 360.16569098 72.01170084 360.11945521 66.19047225 360.06292713 C58.80631341 359.99113514 51.4263393 359.89401474 44.04472029 359.68206775 C38.05498163 359.51227484 32.071114 359.4417904 26.07905829 359.4363898 C23.80971505 359.41677382 21.54036911 359.36185758 19.27281821 359.26957309 C7.06905134 358.5370179 7.06905134 358.5370179 -3.65526521 363.41464984 C-7.84589507 368.11902278 -10.94972886 373.34059981 -13.91319025 378.87588871 C-16.3332348 383.22518894 -19.21164877 387.24881027 -22.06538713 391.32073963 C-23.14387384 392.89903108 -24.22091278 394.47831381 -25.29585588 396.05902088 C-28.50286558 400.72221872 -31.84766771 405.27397465 -35.22114885 409.81732166 C-39.40585578 415.48182053 -43.37283608 421.28562879 -47.33101213 427.10980213 C-51.29825029 432.94397589 -55.32138147 438.73582306 -59.37788713 444.50823963 C-64.18651904 451.35757181 -68.95994707 458.22963856 -73.69038713 465.13323963 C-74.24790666 465.945349 -74.80542619 466.75745838 -75.37984025 467.59417713 C-75.89095354 468.34183338 -76.40206682 469.08948963 -76.92866838 469.85980213 C-77.37895402 470.51802967 -77.82923967 471.17625721 -78.29317033 471.85443103 C-79.43486441 473.52503468 -79.43486441 473.52503468 -80.37788713 475.50823963 C-51.33788713 475.50823963 -22.29788713 475.50823963 7.62211287 475.50823963 C0.91863639 483.32896219 0.91863639 483.32896219 -3.31538713 486.63323963 C-7.93726582 490.31816604 -12.42759088 494.11795539 -16.87788713 498.00823963 C-21.23748621 501.81322975 -25.62424315 505.56065556 -30.12788713 509.19573963 C-33.8260625 512.1881981 -37.37595684 515.2882444 -40.87788713 518.50823963 C-45.25092808 522.52921372 -49.75887871 526.31013481 -54.37788713 530.04339588 C-60.49030194 535.06544502 -66.41665293 540.30852038 -72.37788713 545.50823963 C-86.69518418 557.99658056 -86.69518418 557.99658056 -93.12788713 563.19573963 C-97.79409844 566.97150529 -102.20842163 570.97176142 -106.62398088 575.03558338 C-110.20861258 578.25412503 -113.94190039 581.26514237 -117.69038713 584.28948963 C-120.34488333 586.4809923 -122.89789598 588.75071645 -125.44038713 591.07073963 C-128.6452133 593.99248966 -131.90504454 596.76695318 -135.31538713 599.44573963 C-139.94366465 603.09050818 -144.25744039 607.01067319 -148.58882463 611.00042713 C-152.18517392 614.23411934 -155.93169228 617.25662988 -159.69429338 620.29339588 C-162.3249727 622.46456789 -164.85731137 624.7106532 -167.37788713 627.00823963 C-170.77387394 630.10379159 -174.23960244 633.0597517 -177.81538713 635.94573963 C-181.61876216 639.02160551 -185.27871365 642.19577129 -188.87788713 645.50823963 C-193.25092808 649.52921372 -197.75887871 653.31013481 -202.37788713 657.04339588 C-207.82684893 661.52034235 -213.11873941 666.18030182 -218.43403947 670.81439197 C-221.59831409 673.57170638 -224.76900608 676.32160461 -227.94038713 679.07073963 C-228.56066789 679.60852039 -229.18094865 680.14630115 -229.8200258 680.7003783 C-235.73898774 685.82818804 -241.68443966 690.92473997 -247.63521135 696.01556385 C-249.40683048 697.53303084 -251.17589492 699.05342733 -252.94429338 700.57464588 C-255.84883268 703.07293091 -258.75979946 705.56354723 -261.67427385 708.05023181 C-263.39450194 709.52245912 -265.10682427 711.00356279 -266.81929338 712.48480213 C-267.90095664 713.40971183 -268.98297174 714.33421026 -270.06538713 715.25823963 C-271.01800432 716.07808338 -271.9706215 716.89792713 -272.95210588 717.74261463 C-275.37788713 719.50823963 -275.37788713 719.50823963 -278.37788713 719.50823963 C-277.84407202 713.99888635 -276.79081362 709.14536568 -274.84663713 703.94964588 C-274.58507829 703.23007205 -274.32351945 702.51049823 -274.05403459 701.76911914 C-273.17039933 699.3456552 -272.27426236 696.92701791 -271.37788713 694.50823963 C-270.71455322 692.69969336 -270.05181306 690.89092923 -269.38960588 689.0819701 C-267.59967464 684.20160413 -265.79791234 679.32570006 -263.99165666 674.45135486 C-262.87824202 671.44669733 -261.76657468 668.44139802 -260.65523088 665.435974 C-257.51686362 656.953298 -254.37105085 648.47368802 -251.18648088 640.00823963 C-248.62849143 633.20544062 -246.13131616 626.38145192 -243.65660417 619.547943 C-242.36291776 615.97656591 -241.06553764 612.40653011 -239.76851213 608.83636463 C-239.35705698 607.70361858 -239.35705698 607.70361858 -238.9372896 606.54798877 C-235.69885266 597.63505921 -232.44728399 588.72693864 -229.19038713 579.82073963 C-228.88338884 578.9812276 -228.57639055 578.14171558 -228.26008928 577.2767638 C-222.21528598 560.75308195 -216.12001831 544.24811729 -210.01192033 527.74774158 C-206.77743081 519.00946907 -203.55151175 510.26883235 -200.37788713 501.50823963 C-198.18213483 495.46422026 -195.9810139 489.42216335 -193.77730119 483.38104236 C-193.08990588 481.49529224 -192.40339352 479.60922005 -191.71773088 477.72283924 C-190.71866764 474.97470306 -189.71655752 472.22769486 -188.71382463 469.48089588 C-188.40858873 468.63922367 -188.10335283 467.79755146 -187.78886735 466.93037403 C-187.5016179 466.14532993 -187.21436845 465.36028583 -186.91841447 464.55145252 C-186.66844713 463.86515262 -186.41847978 463.17885273 -186.16093767 462.47175586 C-185.34201117 460.41827987 -184.37653807 458.47946012 -183.37788713 456.50823963 C-183.95841529 456.51100501 -184.53894346 456.51377038 -185.13706338 456.51661956 C-199.24946733 456.58281451 -213.36184806 456.6324885 -227.47437418 456.66367614 C-234.2990393 456.67915837 -241.12360093 456.70027355 -247.94819963 456.73455799 C-254.52931942 456.76760356 -261.11035963 456.78507284 -267.69156587 456.79287136 C-270.20749042 456.79843177 -272.72340881 456.80928922 -275.23928773 456.8254298 C-278.75225317 456.84707902 -282.26476851 456.85021177 -285.77778947 456.8488158 C-287.35195383 456.86499454 -287.35195383 456.86499454 -288.95791948 456.88150012 C-289.91146821 456.87737613 -290.86501695 456.87325214 -291.8474611 456.86900318 C-292.67891838 456.87176856 -293.51037565 456.87453393 -294.36702859 456.87738311 C-295.03061191 456.75556576 -295.69419523 456.63374841 -296.37788713 456.50823963 C-298.90615284 452.71584107 -298.74233614 451.0274074 -298.37788713 446.50823963 C-297.60698722 443.42464 -296.47818892 440.48770852 -295.37788713 437.50823963 C-294.93417127 436.24472542 -294.4929712 434.98032619 -294.05366838 433.71527088 C-285.22945378 408.34861107 -285.22945378 408.34861107 -281.25288713 399.82073963 C-279.15335001 395.26595868 -277.79623916 390.53310988 -276.36226213 385.73480213 C-274.39767527 379.29532298 -271.96416728 373.034988 -269.55757463 366.75042713 C-269.22080705 365.86999744 -268.88403947 364.98956775 -268.53706682 364.08245838 C-267.87617769 362.35753152 -267.21299249 360.63348148 -266.54683244 358.91058338 C-264.4437486 353.43454962 -262.45275219 347.92567893 -260.51069963 342.39105213 C-257.74044356 334.49635253 -254.87689436 326.63924731 -251.97322404 318.79275501 C-250.44922159 314.67415214 -248.92960761 310.55392864 -247.40913713 306.43402088 C-247.08528032 305.55683902 -246.76142351 304.67965717 -246.42775285 303.77589405 C-242.48220582 293.08701448 -238.55540215 282.39125475 -234.62788713 271.69573963 C-233.86398719 269.61589974 -233.10007107 267.53606579 -232.33613908 265.45623767 C-228.87610803 256.03582912 -225.41695861 246.61509745 -221.95909441 237.19389331 C-213.94080575 215.34814769 -205.90929154 193.50748104 -197.83241594 171.68331897 C-193.35942013 159.59703295 -188.90584998 147.50386254 -184.47413957 135.40237415 C-180.76617307 125.27830168 -177.04632911 115.15864761 -173.31337297 105.04376209 C-172.71909754 103.43304962 -172.12532925 101.82214988 -171.53224504 100.21099842 C-157.6984203 62.63576099 -138.5592245 35.07770708 -101.641559 17.52093494 C-91.72862158 13.08619977 -80.14714924 7.91989336 -69.25288713 7.00823963 C-65.55757506 6.69898366 -65.55757506 6.69898366 -63.00472146 5.54278177 C-44.29270826 -1.82668421 -19.7168643 -0.08077937 0 0 Z " fill="#03B3FD" transform="translate(640.3778871297836,260.49176037311554)"/>
<path d="M0 0 C2.03397629 7.18545777 -2.02161449 14.29098583 -5.03125 20.7890625 C-6.30195433 23.6891377 -7.2502091 26.65381536 -8.2109375 29.66796875 C-9.35820841 33.05866545 -10.74274839 36.34326362 -12.1328125 39.640625 C-13.06671152 41.99065295 -13.06671152 41.99065295 -13.49609375 44.51953125 C-14.01357899 47.06684229 -14.82982342 49.09256957 -15.9375 51.4375 C-17.53226362 54.91282716 -18.81219497 58.3623471 -20 62 C-20.68231554 63.66879583 -21.37031179 65.33527495 -22.0625 67 C-23.20797335 69.81123497 -24.0182765 72.11422813 -24.5 75.125 C-25.08464137 78.48668788 -26.39212836 80.89175552 -27.96484375 83.890625 C-29.71635666 87.45974564 -30.80692716 91.21546195 -32 95 C-40.72890517 121.58210146 -40.72890517 121.58210146 -45 130 C-46.58037183 133.68174535 -47.78403773 137.41439052 -48.9375 141.25 C-52.98612153 154.55476369 -52.98612153 154.55476369 -55.0625 159.5625 C-56.3748436 162.97459336 -57.15608823 166.44351469 -58 170 C-57.34 170.33 -56.68 170.66 -56 171 C-57.3125 172.5 -57.3125 172.5 -59 174 C-59.99 174 -60.98 174 -62 174 C-61.46618489 168.49064672 -60.41292649 163.63712605 -58.46875 158.44140625 C-58.20719116 157.72183243 -57.94563232 157.00225861 -57.67614746 156.26087952 C-56.7925122 153.83741558 -55.89637523 151.41877828 -55 149 C-54.33666609 147.19145373 -53.67392593 145.3826896 -53.01171875 143.57373047 C-51.22178751 138.6933645 -49.42002521 133.81746043 -47.61376953 128.94311523 C-46.50035489 125.93845771 -45.38868755 122.93315839 -44.27734375 119.92773438 C-41.13897649 111.44505837 -37.99316372 102.96544839 -34.80859375 94.5 C-32.24947271 87.69419161 -29.75123264 80.86716984 -27.27542114 74.03063965 C-25.99842157 70.50526587 -24.71780402 66.98120601 -23.4375 63.45703125 C-23.16567398 62.70868011 -22.89384796 61.96032898 -22.61378479 61.18930054 C-19.43441183 52.43894258 -16.24397295 43.69263228 -13.04830933 34.94821167 C-12.39939462 33.1720982 -11.75088528 31.39583657 -11.10281372 29.61941528 C-7.48796372 19.71169598 -3.83352626 9.82569423 0 0 Z " fill="#1F6DFA" transform="translate(424,806)"/>
<path d="M0 0 C3.89876209 0.01315761 7.79751288 0.00855723 11.69629097 0.00629318 C18.42453193 0.00473269 25.15268451 0.01401224 31.88090324 0.03100669 C41.60833577 0.05556048 51.33572627 0.06321855 61.06318642 0.06697067 C76.85165323 0.07350971 92.6400731 0.09340111 108.42851448 0.1218785 C123.75045222 0.14948545 139.07237714 0.1706864 154.39433479 0.18340194 C155.34140647 0.18419011 156.28847814 0.18497828 157.26424895 0.18579034 C162.01621365 0.18970592 166.76817843 0.19349693 171.52014327 0.19722605 C210.83924255 0.22824249 250.15828946 0.28100813 289.47734261 0.34819686 C289.47734261 0.67819686 289.47734261 1.00819686 289.47734261 1.34819686 C288.8257863 1.34993311 288.17423 1.35166936 287.50292957 1.35345823 C248.89840726 1.45645507 210.29390229 1.56456079 171.68941306 1.6793138 C167.05557198 1.69308361 162.42173077 1.70681067 157.78788948 1.72051132 C156.40410033 1.72460377 156.40410033 1.72460377 154.99235584 1.72877891 C140.04904022 1.77287071 125.10571708 1.81349859 110.16238831 1.85284948 C94.8325996 1.89329503 79.50282484 1.93745576 64.17305672 1.98507541 C54.71149359 2.01434896 45.24993149 2.04071421 35.78835018 2.06337584 C29.3028499 2.07918681 22.8173667 2.09860191 16.33188538 2.12086528 C12.58845041 2.13360887 8.84502852 2.14474986 5.10157776 2.15161598 C1.04425757 2.15909927 -3.01299907 2.17416497 -7.07029533 2.18997848 C-8.25512131 2.19095659 -9.43994728 2.19193469 -10.66067708 2.19294244 C-12.29315036 2.20115411 -12.29315036 2.20115411 -13.95860291 2.20953166 C-14.89499324 2.21218971 -15.83138357 2.21484775 -16.79614937 2.21758634 C-19.766694 2.35988718 -22.59626906 2.83158479 -25.52265739 3.34819686 C-27.0846489 3.3880563 -28.64826618 3.39180988 -30.21015739 3.34819686 C-33.11753343 3.26785487 -34.69564744 3.40586021 -37.52265739 4.34819686 C-39.91756725 4.41789738 -42.31433431 4.43267689 -44.71015739 4.41069686 C-45.98246208 4.40167343 -47.25476677 4.39264999 -48.56562614 4.38335311 C-50.02935661 4.36595077 -50.02935661 4.36595077 -51.52265739 4.34819686 C-51.52265739 4.01819686 -51.52265739 3.68819686 -51.52265739 3.34819686 C-34.33512679 0.35147102 -17.39509344 -0.07389536 0 0 Z " fill="#44F2FD" transform="translate(639.5226573944092,260.6518031358719)"/>
<path d="M0 0 C100.98 0 201.96 0 306 0 C306 0.66 306 1.32 306 2 C304.85660156 1.98839844 303.71320313 1.97679687 302.53515625 1.96484375 C301.04427246 1.95546712 299.55338691 1.94636679 298.0625 1.9375 C297.30775391 1.92912109 296.55300781 1.92074219 295.77539062 1.91210938 C293.85005687 1.90347559 291.92464419 1.94775667 290 2 C289.67 2.33 289.34 2.66 289 3 C287.31391034 3.07205511 285.62499341 3.08386068 283.9375 3.0625 C283.01839844 3.05347656 282.09929687 3.04445313 281.15234375 3.03515625 C280.44207031 3.02355469 279.73179687 3.01195312 279 3 C279 2.34 279 1.68 279 1 C186.93 1 94.86 1 0 1 C0 0.67 0 0.34 0 0 Z " fill="#00EAF9" transform="translate(622,262)"/>
<path d="M0 0 C30.90567621 -0.09119343 61.81131694 -0.1620092 92.71709569 -0.20426132 C96.3633993 -0.20926432 100.00970265 -0.21444159 103.65600586 -0.21972656 C104.74490455 -0.22130043 104.74490455 -0.22130043 105.85580119 -0.22290608 C117.61966079 -0.2403251 129.38344244 -0.27187098 141.14725576 -0.30861118 C153.21240778 -0.34597906 165.27751889 -0.36822703 177.34272641 -0.37635398 C184.79139456 -0.38185042 192.23984238 -0.39922816 199.68844273 -0.43166587 C205.39403823 -0.45525167 211.09949165 -0.45783037 216.80512619 -0.45243073 C219.15015078 -0.45353516 221.49518338 -0.46154433 223.84015846 -0.4768219 C227.03175693 -0.49660295 230.222398 -0.49198234 233.41401672 -0.48101807 C234.35077864 -0.49266943 235.28754055 -0.5043208 236.25268918 -0.51632524 C242.52672136 -0.45770796 242.52672136 -0.45770796 245.09912395 2.03006363 C245.39641305 2.68014263 245.69370214 3.33022163 246 4 C244.35 3.67 242.7 3.34 241 3 C241 2.34 241 1.68 241 1 C161.47 1 81.94 1 0 1 C0 0.67 0 0.34 0 0 Z " fill="#30D0FC" transform="translate(580,493)"/>
<path d="M0 0 C0.66 0.66 1.32 1.32 2 2 C1.01 3.98 0.02 5.96 -1 8 C1.475 8.99 1.475 8.99 4 10 C4 10.99 4 11.98 4 13 C4.58523438 12.9278125 5.17046875 12.855625 5.7734375 12.78125 C12.52573767 12.0512716 19.16370117 11.9539491 25.94287109 12.02392578 C31.32780834 12.05866731 36.63270635 11.78759156 42 11.375 C48.28253926 10.90890633 53.93500284 11.19689273 60 13 C60 12.34 60 11.68 60 11 C61.2828186 11.24230347 61.2828186 11.24230347 62.59155273 11.48950195 C68.39274675 12.35837214 74.2068716 12.18451091 80.0625 12.1875 C81.32900391 12.19974609 82.59550781 12.21199219 83.90039062 12.22460938 C85.73053711 12.22750977 85.73053711 12.22750977 87.59765625 12.23046875 C89.26066772 12.23663208 89.26066772 12.23663208 90.95727539 12.24291992 C94.01977739 12.15798686 94.01977739 12.15798686 96.71264648 10.8605957 C97.46747314 10.57659912 98.2222998 10.29260254 99 10 C99.99 10.66 100.98 11.32 102 12 C104.73872955 12.45772063 104.73872955 12.45772063 107.6875 12.625 C108.68136719 12.69976563 109.67523438 12.77453125 110.69921875 12.8515625 C111.83810547 12.92503906 111.83810547 12.92503906 113 13 C113 13.33 113 13.66 113 14 C98.3012079 14.07001853 83.60243782 14.12295297 68.90351295 14.15543652 C62.07884783 14.17091874 55.2542862 14.19203393 48.4296875 14.22631836 C41.84856771 14.25936394 35.2675275 14.27683321 28.68632126 14.28463173 C26.17039671 14.29019214 23.65447832 14.30104959 21.1385994 14.31719017 C17.62563396 14.33883939 14.11311862 14.34197214 10.60009766 14.34057617 C9.55065475 14.351362 8.50121185 14.36214783 7.41996765 14.3732605 C6.46641891 14.36913651 5.51287018 14.36501251 4.53042603 14.36076355 C3.28324012 14.36491162 3.28324012 14.36491162 2.01085854 14.36914349 C1.34727522 14.24732614 0.6836919 14.12550879 0 14 C-2.46751239 10.29873141 -2.30721156 8.37776468 -2 4 C-1 1.5625 -1 1.5625 0 0 Z " fill="#046EF8" transform="translate(344,703)"/>
<path d="M0 0 C2.03397629 7.18545777 -2.02161449 14.29098583 -5.03125 20.7890625 C-6.30195433 23.6891377 -7.2502091 26.65381536 -8.2109375 29.66796875 C-9.35820841 33.05866545 -10.74274839 36.34326362 -12.1328125 39.640625 C-13.06671152 41.99065295 -13.06671152 41.99065295 -13.49609375 44.51953125 C-14.01357899 47.06684229 -14.82982342 49.09256957 -15.9375 51.4375 C-17.53226362 54.91282716 -18.81219497 58.3623471 -20 62 C-20.68231554 63.66879583 -21.37031179 65.33527495 -22.0625 67 C-23.20797335 69.81123497 -24.0182765 72.11422813 -24.5 75.125 C-25.20161641 79.15929437 -27.05184721 82.42989674 -29 86 C-29.66 86 -30.32 86 -31 86 C-28.91237395 78.71544069 -26.4837403 71.60223592 -23.8671875 64.4921875 C-23.47105255 63.40906281 -23.0749176 62.32593811 -22.66677856 61.20999146 C-21.82933778 58.92188717 -20.99051743 56.63428738 -20.15039062 54.34716797 C-18.89679616 50.93433862 -17.64720981 47.52006509 -16.3984375 44.10546875 C-11.00545158 29.37604075 -5.53093868 14.67815369 0 0 Z " fill="#2174FA" transform="translate(424,806)"/>
<path d="M0 0 C1.0607354 3.21106976 0.94904546 5.02017279 -0.1875 8.1875 C-0.46851563 8.97253906 -0.74953125 9.75757813 -1.0390625 10.56640625 C-2.28080182 13.7111363 -3.6726929 16.77519065 -5.08203125 19.84765625 C-6.35942156 22.84272885 -7.19519462 25.8478456 -8 29 C-8.66 29 -9.32 29 -10 29 C-9.78601563 29.70898438 -9.57203125 30.41796875 -9.3515625 31.1484375 C-8.9096664 34.73270587 -9.77613691 36.41844032 -11.375 39.625 C-12.74855264 42.42581963 -14.01261518 45.03784555 -15 48 C-15.66 48 -16.32 48 -17 48 C-16.4412455 43.23556646 -15.47956646 39.0565659 -13.8125 34.5625 C-13.36519531 33.35078125 -12.91789062 32.1390625 -12.45703125 30.890625 C-12.21936035 30.25705078 -11.98168945 29.62347656 -11.73681641 28.97070312 C-10.98437966 26.95822154 -10.24693085 24.94070692 -9.51171875 22.921875 C-6.65341392 15.12372405 -3.59019268 7.49810152 0 0 Z " fill="#1277FA" transform="translate(362,654)"/>
<path d="M0 0 C0.33 0 0.66 0 1 0 C0.45522662 5.1753471 -0.81251383 9.52400497 -2.875 14.3125 C-5.29428912 20.12067379 -7.36762841 25.91440415 -9 32 C-9.66 32 -10.32 32 -11 32 C-11 33.65 -11 35.3 -11 37 C-12.485 37.495 -12.485 37.495 -14 38 C-13.81751709 37.45400146 -13.63503418 36.90800293 -13.44702148 36.34545898 C-12.1338018 32.41167938 -10.82608821 28.47631106 -9.53515625 24.53515625 C-2.19478297 2.19478297 -2.19478297 2.19478297 0 0 Z " fill="#1D87FB" transform="translate(378,610)"/>
<path d="M0 0 C1 3 1 3 1 6 C0 7.66666667 -1 9.33333333 -2 11 C-2 11.99 -2 12.98 -2 14 C-2.73784691 15.79392551 -3.53766087 17.56280003 -4.375 19.3125 C-6.17454954 23.16939971 -7.75910749 26.92278175 -9 31 C-9.53843499 32.62607366 -10.08030821 34.25101151 -10.625 35.875 C-11.01558594 37.04675781 -11.01558594 37.04675781 -11.4140625 38.2421875 C-11.60742188 38.82226562 -11.80078125 39.40234375 -12 40 C-12.33 40 -12.66 40 -13 40 C-12.6231679 31.3988073 -9.61999977 23.97776554 -6.5 16.0625 C-5.9821126 14.72367837 -5.46517791 13.3844878 -4.94921875 12.04492188 C-1.28706631 2.57413262 -1.28706631 2.57413262 0 0 Z " fill="#1E7EFA" transform="translate(457,717)"/>
<path d="M0 0 C0.66 0.66 1.32 1.32 2 2 C0.1265988 3.73092571 -1.74866282 5.45976163 -3.625 7.1875 C-4.14707031 7.67025391 -4.66914063 8.15300781 -5.20703125 8.65039062 C-15.37237836 18 -15.37237836 18 -18 18 C-17.505 16.515 -17.505 16.515 -17 15 C-16.34 15 -15.68 15 -15 15 C-15 14.34 -15 13.68 -15 13 C-14.071875 12.87625 -14.071875 12.87625 -13.125 12.75 C-12.42375 12.5025 -11.7225 12.255 -11 12 C-10.7215625 11.4121875 -10.443125 10.824375 -10.15625 10.21875 C-8.68324824 7.39217905 -6.78773571 5.81805918 -4.375 3.75 C-3.55773437 3.04359375 -2.74046875 2.3371875 -1.8984375 1.609375 C-1.27195312 1.07828125 -0.64546875 0.5471875 0 0 Z " fill="#1881FB" transform="translate(485,873)"/>
<path d="M0 0 C-3.50918836 2.33945891 -4.87398997 2.18890962 -9 2.0625 C-12.42963591 1.96583134 -14.72971413 1.90990471 -18 3 C-20.39490986 3.06970052 -22.79167691 3.08448003 -25.1875 3.0625 C-26.45980469 3.05347656 -27.73210938 3.04445313 -29.04296875 3.03515625 C-30.50669922 3.01775391 -30.50669922 3.01775391 -32 3 C-32 2.67 -32 2.34 -32 2 C-21.34595112 -0.42531194 -10.86424851 -0.19323762 0 0 Z " fill="#2AE3FD" transform="translate(620,262)"/>
<path d="M0 0 C0.66 0.66 1.32 1.32 2 2 C0.29639246 3.588417 -1.41311829 5.17050381 -3.125 6.75 C-4.07632812 7.63171875 -5.02765625 8.5134375 -6.0078125 9.421875 C-8.91029774 11.92271085 -11.77508474 13.95213096 -15 16 C-14.65978036 12.82461668 -13.97533396 11.97723135 -11.5625 9.75 C-9 8 -9 8 -7 8 C-7 7.34 -7 6.68 -7 6 C-5.46875 4.4921875 -5.46875 4.4921875 -3.5 2.875 C-2.8503125 2.33617187 -2.200625 1.79734375 -1.53125 1.2421875 C-0.77328125 0.62730469 -0.77328125 0.62730469 0 0 Z " fill="#1382FB" transform="translate(506,855)"/>
<path d="M0 0 C1.55866905 4.67600716 -0.46983521 8.45322463 -2 13 C-2.309375 13.94875 -2.61875 14.8975 -2.9375 15.875 C-4.22232386 18.44464772 -5.87617714 20.08855942 -8 22 C-5.92957946 14.39162534 -3.14169523 7.2271408 0 0 Z " fill="#277FFA" transform="translate(433,783)"/>
<path d="M0 0 C0.99 0.33 1.98 0.66 3 1 C1.02 5.95 -0.96 10.9 -3 16 C-3.66 16 -4.32 16 -5 16 C-4.49228528 10.03435204 -2.61407872 5.36190101 0 0 Z " fill="#1876FB" transform="translate(350,686)"/>
<path d="M0 0 C1.20963046 3.62889137 0.68301064 4.3467885 -0.8125 7.75 C-2.12741048 10.83619883 -3.29702105 13.81116802 -4.125 17.0625 C-4.41375 18.031875 -4.7025 19.00125 -5 20 C-5.66 20.33 -6.32 20.66 -7 21 C-6.55307649 14.59409637 -4.6162323 4.6162323 0 0 Z " fill="#1D91FB" transform="translate(389,580)"/>
<path d="M0 0 C0.33 0 0.66 0 1 0 C1.5488954 5.2145063 0.02503466 8.89886275 -1.984375 13.58984375 C-3.11052724 16.15812032 -3.11052724 16.15812032 -4.125 19.5625 C-5 22 -5 22 -7 23 C-5.62982617 16.03494972 -3.51097 9.63070001 -1 3 C-0.67 2.01 -0.34 1.02 0 0 Z " fill="#217CFA" transform="translate(441,759)"/>
<path d="M0 0 C0 0.66 0 1.32 0 2 C-0.87011719 2.18175781 -0.87011719 2.18175781 -1.7578125 2.3671875 C-5.34030155 3.13570825 -8.78239105 3.92467382 -12.25 5.125 C-15.00696072 6.00221477 -17.12905232 6.16887928 -20 6 C-16.84605348 3.89736898 -14.17536296 2.98223382 -10.5625 1.875 C-9.42941406 1.52179688 -8.29632812 1.16859375 -7.12890625 0.8046875 C-4 0 -4 0 0 0 Z " fill="#3EE0FC" transform="translate(571,268)"/>
<path d="M0 0 C0.99 0.33 1.98 0.66 3 1 C-0.66866356 5.5142775 -4.33534808 9.50151106 -9 13 C-9.66 13 -10.32 13 -11 13 C-10.67 12.01 -10.34 11.02 -10 10 C-9.34 10 -8.68 10 -8 10 C-8 9.34 -8 8.68 -8 8 C-7.34 8 -6.68 8 -6 8 C-5.67 7.34 -5.34 6.68 -5 6 C-3.5625 4.375 -3.5625 4.375 -2 3 C-1.34 3 -0.68 3 0 3 C0 2.01 0 1.02 0 0 Z " fill="#187BF9" transform="translate(449,903)"/>
<path d="M0 0 C0.66 0.66 1.32 1.32 2 2 C0.23436021 3.65172755 -1.53704598 5.29638045 -3.3125 6.9375 C-4.06176758 7.64036133 -4.06176758 7.64036133 -4.82617188 8.35742188 C-7.21561016 10.55697103 -8.88080438 11.96026813 -12 13 C-11.1875 11.0625 -11.1875 11.0625 -10 9 C-9.01 8.67 -8.02 8.34 -7 8 C-7 7.34 -7 6.68 -7 6 C-5.46875 4.4921875 -5.46875 4.4921875 -3.5 2.875 C-2.8503125 2.33617187 -2.200625 1.79734375 -1.53125 1.2421875 C-0.77328125 0.62730469 -0.77328125 0.62730469 0 0 Z " fill="#147CFB" transform="translate(464,891)"/>
<path d="M0 0 C0.66 0.33 1.32 0.66 2 1 C-7.23942446 10.35107914 -7.23942446 10.35107914 -14 12 C-9.73412126 7.45890328 -4.96387672 3.75264754 0 0 Z " fill="#21D4FB" transform="translate(519,289)"/>
<path d="M0 0 C-0.33 0.99 -0.66 1.98 -1 3 C-3.25 3.87890625 -3.25 3.87890625 -6 4.5625 C-8.68457638 5.20149184 -8.68457638 5.20149184 -11 6 C-11.33 6.66 -11.66 7.32 -12 8 C-12.99 7.34 -13.98 6.68 -15 6 C-12.87717331 4.99539469 -10.75166979 3.99644398 -8.625 3 C-7.44164062 2.443125 -6.25828125 1.88625 -5.0390625 1.3125 C-2 0 -2 0 0 0 Z " fill="#2FDCFC" transform="translate(548,275)"/>
<path d="M0 0 C0.66 0 1.32 0 2 0 C1.21824485 4.84688192 -0.39844278 9.3766367 -2 14 C-2.33 14 -2.66 14 -3 14 C-3.29341888 8.32723489 -3.00559652 5.00932754 0 0 Z " fill="#1263F9" transform="translate(368,960)"/>
<path d="M0 0 C0.66 0.33 1.32 0.66 2 1 C0.38050958 2.50594681 -1.24575974 4.00460668 -2.875 5.5 C-4.23238281 6.75296875 -4.23238281 6.75296875 -5.6171875 8.03125 C-8 10 -8 10 -10 10 C-8.78934835 6.36804504 -7.46308874 5.57103808 -4.4375 3.3125 C-3.61121094 2.68988281 -2.78492188 2.06726563 -1.93359375 1.42578125 C-1.29550781 0.95527344 -0.65742187 0.48476563 0 0 Z " fill="#1687FB" transform="translate(520,844)"/>
<path d="M0 0 C0.93045933 2.55144824 1.08564091 3.74006478 0.22265625 6.359375 C-0.16019531 7.14828125 -0.54304688 7.9371875 -0.9375 8.75 C-1.50791016 9.94882812 -1.50791016 9.94882812 -2.08984375 11.171875 C-2.39019531 11.77515625 -2.69054687 12.3784375 -3 13 C-3.66 13 -4.32 13 -5 13 C-4.54554036 11.58208592 -4.08625056 10.16571954 -3.625 8.75 C-3.24214844 7.56664062 -3.24214844 7.56664062 -2.8515625 6.359375 C-2.04826333 4.13372042 -1.10288338 2.09068328 0 0 Z " fill="#25CAFC" transform="translate(481,331)"/>
<path d="M0 0 C2 3 2 3 1.625 5.1875 C1.41875 5.785625 1.2125 6.38375 1 7 C0.34 7 -0.32 7 -1 7 C-1 7.99 -1 8.98 -1 10 C-1.66 10 -2.32 10 -3 10 C-2.01 6.7 -1.02 3.4 0 0 Z " fill="#2E85FC" transform="translate(353,676)"/>
<path d="M0 0 C0.66 0.66 1.32 1.32 2 2 C0.79157144 6.43090471 -0.51668565 8.98112756 -4 12 C-3.52309796 10.37433394 -3.04340334 8.74948689 -2.5625 7.125 C-2.29566406 6.22007812 -2.02882813 5.31515625 -1.75390625 4.3828125 C-1 2 -1 2 0 0 Z " fill="#DDFCFE" transform="translate(933,271)"/>
<path d="M0 0 C0.99 0.33 1.98 0.66 3 1 C1.515 4.465 1.515 4.465 0 8 C-0.66 8 -1.32 8 -2 8 C-1.125 2.25 -1.125 2.25 0 0 Z " fill="#0A6FF9" transform="translate(350,686)"/>
<path d="M0 0 C0.33 0 0.66 0 1 0 C1.39253254 4.44870215 0.15305957 7.14243493 -2 11 C-2.95465783 8.83032311 -3.14401212 7.43671207 -2.3984375 5.17578125 C-1.64129615 3.4315257 -0.82390802 1.71372869 0 0 Z " fill="#0E63FA" transform="translate(393,892)"/>
<path d="M0 0 C0.66 0 1.32 0 2 0 C0.68775452 3.93673644 -0.91910327 6.22719294 -4 9 C-2.25 2.25 -2.25 2.25 0 0 Z " fill="#1974F7" transform="translate(429,796)"/>
<path d="M0 0 C0.99 0.33 1.98 0.66 3 1 C2.67 2.32 2.34 3.64 2 5 C1.01 5 0.02 5 -1 5 C-1.33 4.01 -1.66 3.02 -2 2 C-1.34 1.34 -0.68 0.68 0 0 Z " fill="#1170F5" transform="translate(345,712)"/>
<path d="M0 0 C0.33 0 0.66 0 1 0 C0.67 2.97 0.34 5.94 0 9 C-0.99 9.33 -1.98 9.66 -3 10 C-2.01 6.7 -1.02 3.4 0 0 Z " fill="#2EC9FC" transform="translate(471,355)"/>
<path d="M0 0 C0 0.33 0 0.66 0 1 C-1.43333021 1.39063507 -2.87192679 1.76198474 -4.3125 2.125 C-5.51326172 2.43824219 -5.51326172 2.43824219 -6.73828125 2.7578125 C-9 3 -9 3 -12 1 C-8.0186217 -0.3271261 -4.14954773 -0.06915913 0 0 Z " fill="#42DEFB" transform="translate(588,265)"/>
<path d="M0 0 C1.32 0 2.64 0 4 0 C4 0.66 4 1.32 4 2 C-0.47058824 6 -0.47058824 6 -3 6 C-3 5.34 -3 4.68 -3 4 C-2.34 4 -1.68 4 -1 4 C-0.67 2.68 -0.34 1.36 0 0 Z " fill="#1374F8" transform="translate(414,933)"/>
<path d="M0 0 C0.66 0.33 1.32 0.66 2 1 C1.67 1.78375 1.34 2.5675 1 3.375 C-0.11866511 5.84332497 -0.11866511 5.84332497 0 8 C-0.66 8 -1.32 8 -2 8 C-1.125 1.125 -1.125 1.125 0 0 Z " fill="#1061F9" transform="translate(379,930)"/>
</svg>
